FFmpeg version SVN-r25716, Copyright (c) 2000-2010 the FFmpeg developers  built on Nov 10 2010 12:23:18 with gcc 4.1.2 20080704 (Red Hat 4.1.2-48)  configuration: --enable-libmp3lame --enable-shared --disable-mmx --arch=x86_64  libavutil     50.33. 0 / 50.33. 0  libavcore      0.12. 1 /  0.12. 1  libavcodec    52.94. 4 / 52.94. 4  libavformat   52.84. 0 / 52.84. 0  libavdevice   52. 2. 2 / 52. 2. 2  libavfilter    1.59. 0 /  1.59. 0  libswscale     0.12. 0 /  0.12. 0Input #0, mov,mp4,m4a,3gp,3g2,mj2, from '/RAID10/data/converted_video_files/12654.mov':  Metadata:    major_brand     : qt      minor_version   : 512    compatible_brands: qt      encoder         : Lavf52.36.0    encoder-eng     : Lavf52.36.0  Duration: 00:01:07.66, start: 0.000000, bitrate: 903 kb/s    Stream #0.0(eng): Video: h264, yuv420p, 512x512 [PAR 1:1 DAR 1:1], 903 kb/s, 6 fps, 6 tbr, 6 tbn, 12 tbc[buffer @ 0x10634da0] w:512 h:512 pixfmt:yuv420pOutput #0, flv, to '/RAID10/data/converted_video_files/12654.flv':  Metadata:    encoder         : Lavf52.84.0    Stream #0.0(eng): Video: flv, yuv420p, 512x512 [PAR 1:1 DAR 1:1], q=2-31, 600 kb/s, 1k tbn, 24 tbcStream mapping:  Stream #0.0 -> #0.0Press [q] to stop encodingframe=   45 fps=  0 q=13.5 size=     405kB time=7.38 bitrate= 449.5kbits/s    frame=   89 fps= 85 q=11.3 size=     693kB time=14.71 bitrate= 386.0kbits/s    frame=  132 fps= 84 q=9.8 size=    1031kB time=21.88 bitrate= 386.2kbits/s    frame=  173 fps= 84 q=9.5 size=    1411kB time=28.71 bitrate= 402.8kbits/s    frame=  211 fps= 73 q=11.3 size=    1840kB time=35.04 bitrate= 430.1kbits/s    frame=  224 fps= 72 q=10.9 size=    1976kB time=37.21 bitrate= 435.1kbits/s    frame=  261 fps= 71 q=8.9 size=    2343kB time=43.38 bitrate= 442.6kbits/s    frame=  292 fps= 70 q=9.1 size=    2671kB time=48.54 bitrate= 450.8kbits/s    frame=  324 fps= 68 q=8.9 size=    3015kB time=53.88 bitrate= 458.4kbits/s    frame=  348 fps= 68 q=8.5 size=    3277kB time=57.88 bitrate= 463.9kbits/s    frame=  382 fps= 67 q=8.5 size=    3664kB time=63.54 bitrate= 472.4kbits/s    frame=  406 fps= 67 q=9.5 Lsize=    3958kB time=67.54 bitrate= 480.0kbits/s    video:3951kB audio:0kB global headers:0kB muxing overhead 0.165738%